<!--?xml version="1.0" standalone="no"?-->
              <svg id="sw-js-blob-svg" viewBox="0 0 100 100" xmlns="http://www.w3.org/2000/svg" version="1.1">
                    <defs> 
                        <linearGradient id="sw-gradient" x1="0" x2="1" y1="1" y2="0">
                            <stop id="stop1" stop-color="rgba(248, 117, 55, 1)" offset="0%"></stop>
                            <stop id="stop2" stop-color="rgba(251, 168, 31, 1)" offset="100%"></stop>
                        </linearGradient>
                    </defs>
                <path fill="url(#sw-gradient)" d="M17.1,-22.4C20.4,-21.2,20,-13.8,17.6,-8.7C15.3,-3.5,10.9,-0.7,11.7,6C12.6,12.8,18.7,23.4,17.6,31C16.5,38.5,8.2,43.1,3.1,38.8C-2.1,34.6,-4.1,21.5,-7.8,14.8C-11.4,8,-16.7,7.6,-18.2,5.3C-19.7,3.1,-17.4,-0.9,-13.8,-2.2C-10.3,-3.5,-5.3,-2,-2.8,-3.5C-0.3,-5,-0.1,-9.4,3.4,-14C6.9,-18.7,13.8,-23.6,17.1,-22.4Z" width="100%" height="100%" transform="translate(50 50)" stroke-width="0" style="transition: 0.3s;"></path>
              </svg>