<!--?xml version="1.0" standalone="no"?-->
              <svg id="sw-js-blob-svg" viewBox="0 0 100 100" xmlns="http://www.w3.org/2000/svg" version="1.1">
                    <defs> 
                        <linearGradient id="sw-gradient" x1="0" x2="1" y1="1" y2="0">
                            <stop id="stop1" stop-color="rgba(248, 117, 55, 1)" offset="0%"></stop>
                            <stop id="stop2" stop-color="rgba(251, 168, 31, 1)" offset="100%"></stop>
                        </linearGradient>
                    </defs>
                <path fill="url(#sw-gradient)" d="M22.5,-25.8C30.6,-19.9,39.9,-14.3,40.8,-7.4C41.7,-0.6,34.3,7.5,28,14.2C21.8,20.9,16.7,26.4,9.8,30.2C3,34.1,-5.5,36.4,-11.9,33.7C-18.3,31,-22.6,23.2,-27.8,15.4C-33.1,7.7,-39.3,-0.2,-38.2,-6.8C-37.1,-13.4,-28.7,-18.8,-21.1,-24.8C-13.5,-30.7,-6.8,-37.3,0.2,-37.5C7.1,-37.7,14.3,-31.6,22.5,-25.8Z" width="100%" height="100%" transform="translate(50 50)" stroke-width="0" style="transition: 0.3s;"></path>
              </svg>