<svg id="visual" viewBox="0 0 900 600" width="900" height="600" xmlns="http://www.w3.org/2000/svg" xmlns:xlink="http://www.w3.org/1999/xlink" version="1.1"><rect x="0" y="0" width="900" height="600" fill="#c4cacf"></rect><defs><linearGradient id="grad1_0" x1="33.3%" y1="0%" x2="100%" y2="100%"><stop offset="20%" stop-color="#c4cacf" stop-opacity="1"></stop><stop offset="80%" stop-color="#c4cacf" stop-opacity="1"></stop></linearGradient></defs><defs><linearGradient id="grad2_0" x1="0%" y1="0%" x2="66.7%" y2="100%"><stop offset="20%" stop-color="#c4cacf" stop-opacity="1"></stop><stop offset="80%" stop-color="#c4cacf" stop-opacity="1"></stop></linearGradient></defs><g transform="translate(900, 0)"><path d="M0 378.6C-34.6 349 -69.2 319.4 -96.7 297.7C-124.3 276 -144.9 262.3 -185.7 255.6C-226.6 249 -287.8 249.6 -306.3 222.5C-324.7 195.5 -300.4 140.9 -305.3 99.2C-310.2 57.5 -344.4 28.8 -378.6 0L0 0Z" fill="#e98028"></path></g><g transform="translate(0, 600)"><path d="M0 -378.6C32.9 -345.8 65.8 -313 95.5 -293.9C125.1 -274.7 151.5 -269.2 191 -262.9C230.5 -256.7 283.2 -249.8 306.3 -222.5C329.4 -195.3 322.9 -147.7 330 -107.2C337.1 -66.8 357.9 -33.4 378.6 0L0 0Z" fill="#e98028"></path></g></svg>